<svg width="113" height="71" viewBox="0 0 113 71" fill="none" xmlns="http://www.w3.org/2000/svg">
<path d="M5.45326 0.440482C13.3567 3.78994 15.6862 9.7698 17.4312 14.1699C18.9931 18.0657 19.7876 19.8774 22.915 21.2181C26.0425 22.5588 27.9287 21.8963 31.8307 20.33C36.1709 18.616 42.1246 16.2129 50.0281 19.5624C57.9316 22.9118 60.261 28.8917 62.006 33.2918C63.5679 37.1876 64.3624 38.9993 67.4898 40.34C70.6173 41.6807 72.5035 41.0182 76.4055 39.4519C80.7457 37.7379 86.6994 35.3348 94.6029 38.6842C102.506 42.0337 104.836 48.0136 106.581 52.4136C108.143 56.3094 108.937 58.1211 112.065 59.4619L107.255 70.6272C99.3512 67.2777 97.0217 61.2979 95.2768 56.8978C93.7148 53.002 92.9203 51.1903 89.7929 49.8496C86.6655 48.5089 84.7793 49.1714 80.8772 50.7377C76.5371 52.4517 70.5834 54.8548 62.6799 51.5053C54.7764 48.1559 52.4469 42.176 50.702 37.7759C49.14 33.8801 48.3455 32.0684 45.2181 30.7277C42.0907 29.387 40.2045 30.0495 36.3024 31.6158C31.9623 33.3298 26.0086 35.7329 18.1051 32.3835C10.2016 29.034 7.87211 23.0541 6.12718 18.654C4.56521 14.7583 3.77073 12.9465 0.643303 11.6058L5.45326 0.440482Z" fill="#F97315"/>
</svg>
