<?xml version="1.0" encoding="UTF-8" standalone="no"?><!DOCTYPE svg PUBLIC "-//W3C//DTD SVG 1.1//EN" "http://www.w3.org/Graphics/SVG/1.1/DTD/svg11.dtd"><svg width="100%" height="100%" viewBox="0 0 783 688" version="1.1" xmlns="http://www.w3.org/2000/svg" xmlns:xlink="http://www.w3.org/1999/xlink" xml:space="preserve" xmlns:serif="http://www.serif.com/" style="fill-rule:evenodd;clip-rule:evenodd;stroke-linejoin:round;stroke-miterlimit:2;"><g><g><path d="M143.324,685.859c7.603,-0 14.506,-1.07 20.711,-3.208c6.205,-2.139 11.133,-5.384 14.785,-9.736c3.652,-4.352 5.478,-9.809 5.478,-16.371c0,-6.855 -1.978,-12.664 -5.935,-17.425c-3.956,-4.761 -9.652,-8.288 -17.088,-10.58l-8.163,-2.482c-5.239,-1.596 -9.074,-3.367 -11.506,-5.312c-2.431,-1.946 -3.647,-4.43 -3.647,-7.453c0,-2.873 1.176,-5.235 3.528,-7.086c2.352,-1.85 5.79,-2.775 10.315,-2.775c3.68,-0 6.952,0.805 9.816,2.414c2.864,1.61 5.264,3.919 7.199,6.925c1.935,3.007 3.345,6.602 4.232,10.783l6.772,0l-0.462,-23.45c-3.052,-1.917 -7.072,-3.421 -12.06,-4.512c-4.988,-1.092 -10.421,-1.638 -16.299,-1.638c-8.602,0 -15.944,1.218 -22.025,3.653c-6.08,2.435 -10.73,5.836 -13.95,10.205c-3.22,4.368 -4.83,9.476 -4.83,15.324c-0,6.746 2.09,12.442 6.27,17.088c4.18,4.646 10.11,8.126 17.792,10.441l8.161,2.483c4.941,1.532 8.53,3.29 10.767,5.273c2.237,1.984 3.356,4.528 3.356,7.632c-0,2.959 -1.273,5.421 -3.817,7.384c-2.545,1.963 -6.128,2.945 -10.752,2.945c-2.893,0 -5.653,-0.478 -8.28,-1.435c-2.627,-0.956 -5.018,-2.367 -7.175,-4.232c-2.157,-1.865 -4.017,-4.175 -5.581,-6.929c-1.565,-2.754 -2.734,-5.928 -3.507,-9.522l-6.716,0l0.623,25.134c3.369,1.835 7.949,3.371 13.739,4.607c5.791,1.236 11.874,1.855 18.249,1.855Z" style="fill-rule:nonzero;stroke:#000;stroke-width:3.33px;"/><path d="M281.549,595.838l-83.703,0l-0.623,26.591l6.771,-0c1.027,-4.816 2.213,-8.489 3.56,-11.022c1.347,-2.532 3.192,-4.314 5.535,-5.345c2.344,-1.031 5.553,-1.702 9.629,-2.014l2.1,-0.122l0,63.909c0,1.994 -0.226,3.584 -0.678,4.771c-0.452,1.187 -1.366,2.099 -2.743,2.734c-1.376,0.636 -3.432,1.17 -6.166,1.605l-0,7.028l48.879,0l-0,-7.028c-2.735,-0.435 -4.781,-0.969 -6.14,-1.605c-1.358,-0.635 -2.273,-1.547 -2.746,-2.734c-0.472,-1.187 -0.708,-2.777 -0.708,-4.771l-0,-63.909l2.161,0.122c4.071,0.312 7.28,0.992 9.625,2.042c2.346,1.049 4.183,2.839 5.511,5.372c1.329,2.532 2.525,6.188 3.588,10.967l6.717,-0l-0.569,-26.591Z" style="fill-rule:nonzero;stroke:#000;stroke-width:3.33px;"/><path d="M302.693,610.667l-0,39.592c-0,5.805 0.976,10.914 2.929,15.327c1.954,4.413 4.679,8.131 8.176,11.154c3.497,3.022 7.603,5.298 12.317,6.826c4.714,1.528 9.829,2.293 15.347,2.293c7.686,-0 14.279,-1.513 19.779,-4.538c5.5,-3.025 9.744,-7.269 12.733,-12.733c2.988,-5.464 4.521,-11.89 4.598,-19.278l0.42,-37.231c0.041,-2.139 0.257,-3.792 0.648,-4.959c0.391,-1.166 1.164,-2.058 2.319,-2.676c1.155,-0.617 2.912,-1.14 5.27,-1.57l0,-7.036l-27.905,0l-0,7.029c2.635,0.466 4.597,1.008 5.885,1.625c1.288,0.617 2.146,1.538 2.573,2.761c0.427,1.223 0.661,2.961 0.702,5.212l0.414,34.932c0.077,5.338 -0.621,9.751 -2.094,13.238c-1.474,3.488 -3.567,6.078 -6.281,7.77c-2.714,1.693 -5.896,2.539 -9.547,2.539c-3.683,0 -6.915,-0.844 -9.697,-2.532c-2.781,-1.688 -4.958,-4.189 -6.53,-7.502c-1.573,-3.313 -2.359,-7.445 -2.359,-12.394l0,-37.496c0,-1.795 0.224,-3.207 0.672,-4.235c0.447,-1.029 1.315,-1.823 2.603,-2.381c1.288,-0.559 3.214,-1.071 5.777,-1.537l-0,-7.029l-46.872,0l0,7.029c2.324,0.43 4.061,0.914 5.214,1.452c1.152,0.538 1.925,1.302 2.318,2.293c0.394,0.99 0.591,2.342 0.591,4.055Z" style="fill-rule:nonzero;stroke:#000;stroke-width:3.33px;"/><path d="M502.814,638.617c0,-9.278 -2.202,-17.093 -6.606,-23.445c-4.403,-6.352 -10.622,-11.162 -18.657,-14.431c-8.035,-3.268 -17.502,-4.903 -28.4,-4.903l-45.122,0l-0,7.029c2.562,0.466 4.488,0.978 5.779,1.537c1.291,0.558 2.15,1.352 2.577,2.381c0.427,1.028 0.641,2.44 0.641,4.235l-0,57.772c-0,1.794 -0.214,3.206 -0.641,4.235c-0.427,1.029 -1.286,1.822 -2.577,2.381c-1.291,0.558 -3.217,1.071 -5.779,1.537l-0,7.028l46.874,0c7.298,0 14.093,-1.075 20.385,-3.225c6.291,-2.15 11.797,-5.225 16.518,-9.226c4.72,-4.002 8.402,-8.782 11.044,-14.34c2.643,-5.559 3.964,-11.747 3.964,-18.565Zm-32.67,1.466c0,7.237 -0.984,13.496 -2.951,18.776c-1.967,5.28 -4.744,9.381 -8.329,12.301c-3.585,2.921 -7.786,4.467 -12.602,4.638l-3.539,0.088l0,-71.96l3.539,0.087c4.957,0.172 9.218,1.798 12.785,4.879c3.567,3.081 6.299,7.294 8.196,12.637c1.898,5.344 2.865,11.529 2.901,18.554Z" style="fill-rule:nonzero;stroke:#000;stroke-width:3.33px;"/><path d="M554.692,668.792l-0,-57.772c-0,-1.795 0.213,-3.207 0.64,-4.235c0.428,-1.029 1.287,-1.832 2.577,-2.408c1.291,-0.577 3.217,-1.08 5.779,-1.51l0,-7.029l-47.691,0l0,7.029c2.562,0.43 4.489,0.933 5.779,1.51c1.291,0.576 2.15,1.379 2.577,2.408c0.427,1.028 0.641,2.44 0.641,4.235l0,57.772c0,1.794 -0.214,3.206 -0.641,4.235c-0.427,1.029 -1.286,1.822 -2.577,2.381c-1.29,0.558 -3.217,1.071 -5.779,1.537l0,7.028l47.691,0l0,-7.028c-2.562,-0.466 -4.488,-0.979 -5.779,-1.537c-1.29,-0.559 -2.149,-1.352 -2.577,-2.381c-0.427,-1.029 -0.64,-2.441 -0.64,-4.235Z" style="fill-rule:nonzero;stroke:#000;stroke-width:3.33px;"/><path d="M573.934,640.178c0,6.799 1.196,12.99 3.587,18.573c2.392,5.584 5.784,10.397 10.177,14.439c4.392,4.042 9.622,7.164 15.688,9.366c6.066,2.202 12.812,3.303 20.237,3.303c7.448,-0 14.208,-1.162 20.28,-3.486c6.073,-2.324 11.289,-5.573 15.651,-9.749c4.361,-4.175 7.716,-9.076 10.065,-14.702c2.349,-5.627 3.524,-11.723 3.524,-18.288c0,-6.799 -1.196,-12.99 -3.587,-18.574c-2.392,-5.583 -5.784,-10.396 -10.176,-14.438c-4.393,-4.042 -9.622,-7.164 -15.688,-9.366c-6.066,-2.202 -12.812,-3.303 -20.238,-3.303c-7.447,0 -14.207,1.162 -20.28,3.486c-6.072,2.324 -11.289,5.573 -15.65,9.748c-4.362,4.175 -7.717,9.067 -10.066,14.676c-2.349,5.608 -3.524,11.713 -3.524,18.315Zm32.697,-1.004c-0,-7.23 0.579,-13.526 1.738,-18.887c1.159,-5.362 2.976,-9.511 5.451,-12.449c2.476,-2.938 5.644,-4.407 9.506,-4.407c2.696,-0 5.104,0.897 7.222,2.691c2.119,1.795 3.913,4.34 5.383,7.635c1.47,3.295 2.59,7.22 3.36,11.775c0.77,4.555 1.155,9.59 1.155,15.105c0,7.23 -0.588,13.517 -1.765,18.861c-1.177,5.343 -2.994,9.493 -5.451,12.449c-2.457,2.956 -5.617,4.434 -9.479,4.434c-2.696,0 -5.103,-0.897 -7.222,-2.692c-2.118,-1.794 -3.913,-4.339 -5.382,-7.634c-1.47,-3.296 -2.59,-7.221 -3.361,-11.775c-0.77,-4.555 -1.155,-9.59 -1.155,-15.106Z" style="fill-rule:nonzero;stroke:#000;stroke-width:3.33px;"/></g><g><path d="M347.693,411.583l152.754,-264.575l2.922,-5.451l2.578,-5.639l2.214,-5.776l1.841,-5.913l1.466,-6.013l1.092,-6.1l0.689,-6.15l0.315,-6.18l-0.089,-6.189l-0.472,-6.179l-0.866,-6.131l-1.24,-6.061l-1.633,-5.973l-1.998,-5.864l-2.371,-5.717l-2.726,-5.56l-3.07,-5.373l-3.405,-5.175l-3.719,-4.95l-4.035,-4.703l-4.309,-4.438l-4.596,-4.152l-4.841,-3.858l-5.077,-3.542l-5.284,-3.218l-5.481,-2.883l-5.658,-2.519l-5.806,-2.165l-5.923,-1.79l-6.022,-1.417l-6.111,-1.034l-6.16,-0.649l-6.179,-0.246l-6.189,0.138l-6.17,0.521l-6.13,0.915l-6.052,1.309l-5.953,1.673l-5.845,2.056l-5.697,2.421l-5.54,2.775l-5.343,3.109l-5.146,3.454l-4.91,3.769l-4.674,4.064l-4.399,4.359l-4.113,4.624l-3.818,4.871l-3.503,5.107l-3.168,5.323l-2.824,5.501l-2.48,5.678l-2.115,5.825l-1.742,5.933l-1.358,6.042l-0.984,6.111l-0.59,6.169l-0.197,6.189l0.197,6.19l0.58,6.159l0.965,6.111l1.358,6.042l1.731,5.953l2.106,5.815l2.46,5.678l2.824,5.51l3.169,5.324l3.493,5.116l3.808,4.881l4.103,4.625l2.519,2.942l2.204,3.158l1.889,3.375l1.555,3.533l1.191,3.67l0.826,3.779l0.453,3.837l0.069,3.858l-0.315,3.847l-0.679,3.798l-1.063,3.72l-1.417,3.591l-1.761,3.434l-100.741,174.491l-2.096,3.247l-2.401,3.021l-2.686,2.775l-2.952,2.499l-3.178,2.185l-3.385,1.869l-3.543,1.535l-3.68,1.171l-3.778,0.797l-3.838,0.433l-3.867,0.05l-3.847,-0.335l-3.798,-0.709l-3.71,-1.082l-3.582,-1.446l-3.424,-1.781l-3.237,-2.116l-3.002,-2.421l-2.765,-2.706l-2.469,-2.961l-2.175,-3.198l-3.395,-5.176l-3.709,-4.95l-4.015,-4.713l-4.3,-4.438l-4.576,-4.172l-4.831,-3.867l-5.068,-3.552l-5.274,-3.228l-5.471,-2.892l-5.648,-2.539l-5.786,-2.175l-5.923,-1.81l-6.022,-1.427l-6.101,-1.053l-6.15,-0.659l-6.179,-0.266l-6.19,0.118l-6.169,0.512l-6.121,0.895l-6.051,1.279l-5.963,1.663l-5.845,2.037l-5.697,2.401l-5.54,2.755l-5.363,3.1l-5.146,3.424l-4.93,3.749l-4.674,4.054l-4.408,4.34l-4.133,4.605l-3.828,4.861l-3.513,5.097l-3.188,5.303l-2.853,5.491l-2.49,5.668l-2.135,5.805l-1.761,5.934l-1.378,6.032l-1.004,6.11l-0.61,6.15l-0.226,6.189l0.177,6.19l0.551,6.16l0.945,6.11l1.338,6.052l1.702,5.943l2.086,5.825l2.441,5.688l2.804,5.52l3.139,5.333l3.473,5.117l3.779,4.9l4.093,4.644l4.369,4.379l4.645,4.084l4.89,3.798l5.117,3.473l5.333,3.149l5.52,2.805l5.678,2.44l5.825,2.086l5.943,1.722l6.052,1.328l9.682,1.634l9.732,1.249l9.781,0.886l9.81,0.502l9.82,0.118l9.811,-0.256l9.8,-0.63l9.771,-1.013l9.722,-1.388l9.653,-1.751l9.594,-2.135l9.495,-2.5l9.388,-2.863l9.279,-3.218l9.141,-3.582l9.004,-3.926l8.846,-4.27l8.669,-4.605l8.482,-4.94l8.295,-5.254l8.078,-5.58l7.862,-5.884l7.626,-6.189l7.39,-6.465l7.124,-6.75l6.868,-7.026l6.593,-7.281l6.297,-7.528l6.013,-7.763l5.707,-8l5.392,-8.207l5.068,-8.403" style="fill-rule:nonzero;"/><path d="M613.37,245.643l-56.58,-98.005l-225.609,390.752l451.563,0.61l-55.901,-96.815l-226.544,-0.689l113.071,-195.853" style="fill-rule:nonzero;"/></g></g></svg>