<?xml version="1.0" encoding="UTF-8" standalone="no"?><!DOCTYPE svg PUBLIC "-//W3C//DTD SVG 1.1//EN" "http://www.w3.org/Graphics/SVG/1.1/DTD/svg11.dtd"><svg width="100%" height="100%" viewBox="0 0 783 691" version="1.1" xmlns="http://www.w3.org/2000/svg" xmlns:xlink="http://www.w3.org/1999/xlink" xml:space="preserve" xmlns:serif="http://www.serif.com/" style="fill-rule:evenodd;clip-rule:evenodd;stroke-linejoin:round;stroke-miterlimit:2;"><g><g><path d="M142.374,690.132c7.602,0 14.505,-1.069 20.71,-3.207c6.205,-2.139 11.133,-5.384 14.785,-9.737c3.652,-4.352 5.478,-9.809 5.478,-16.371c0,-6.855 -1.978,-12.663 -5.934,-17.424c-3.957,-4.762 -9.653,-8.288 -17.089,-10.58l-8.163,-2.483c-5.239,-1.596 -9.074,-3.366 -11.505,-5.312c-2.432,-1.945 -3.648,-4.43 -3.648,-7.453c0,-2.873 1.176,-5.235 3.528,-7.085c2.352,-1.851 5.791,-2.776 10.315,-2.776c3.68,0 6.953,0.805 9.816,2.415c2.864,1.61 5.264,3.918 7.199,6.925c1.935,3.007 3.345,6.601 4.232,10.783l6.772,-0l-0.462,-23.45c-3.052,-1.917 -7.072,-3.421 -12.06,-4.513c-4.988,-1.092 -10.421,-1.637 -16.299,-1.637c-8.602,-0 -15.944,1.217 -22.024,3.652c-6.081,2.435 -10.731,5.837 -13.951,10.205c-3.22,4.369 -4.83,9.477 -4.83,15.324c-0,6.746 2.09,12.443 6.27,17.088c4.18,4.646 10.111,8.127 17.792,10.442l8.162,2.482c4.94,1.532 8.529,3.29 10.766,5.274c2.237,1.984 3.356,4.527 3.356,7.631c-0,2.96 -1.273,5.421 -3.817,7.385c-2.544,1.963 -6.128,2.945 -10.752,2.945c-2.893,-0 -5.653,-0.479 -8.28,-1.435c-2.627,-0.957 -5.018,-2.368 -7.175,-4.233c-2.157,-1.865 -4.017,-4.174 -5.581,-6.928c-1.565,-2.754 -2.733,-5.928 -3.506,-9.522l-6.717,-0l0.623,25.134c3.369,1.835 7.949,3.371 13.74,4.607c5.79,1.236 11.873,1.854 18.249,1.854Z" style="fill:#fff;fill-rule:nonzero;"/><path d="M280.598,600.112l-83.702,0l-0.624,26.59l6.771,0c1.027,-4.815 2.214,-8.489 3.56,-11.021c1.347,-2.533 3.192,-4.314 5.536,-5.345c2.343,-1.031 5.552,-1.703 9.628,-2.015l2.1,-0.122l0,63.91c0,1.994 -0.226,3.584 -0.678,4.771c-0.452,1.187 -1.366,2.098 -2.742,2.734c-1.377,0.635 -3.432,1.17 -6.167,1.604l0,7.029l48.879,-0l-0,-7.029c-2.735,-0.434 -4.781,-0.969 -6.14,-1.604c-1.358,-0.636 -2.273,-1.547 -2.746,-2.734c-0.472,-1.187 -0.708,-2.777 -0.708,-4.771l-0,-63.91l2.161,0.122c4.071,0.312 7.28,0.993 9.625,2.042c2.346,1.049 4.183,2.84 5.512,5.372c1.328,2.532 2.524,6.188 3.587,10.967l6.717,0l-0.569,-26.59Z" style="fill:#fff;fill-rule:nonzero;"/><path d="M301.742,614.941l-0,39.591c-0,5.806 0.977,10.915 2.93,15.328c1.953,4.413 4.678,8.131 8.175,11.153c3.497,3.023 7.603,5.298 12.317,6.827c4.714,1.528 9.829,2.292 15.347,2.292c7.686,0 14.279,-1.512 19.779,-4.537c5.5,-3.025 9.744,-7.27 12.733,-12.734c2.988,-5.464 4.521,-11.89 4.598,-19.277l0.421,-37.232c0.04,-2.139 0.256,-3.791 0.647,-4.958c0.391,-1.167 1.164,-2.059 2.319,-2.676c1.155,-0.617 2.912,-1.141 5.27,-1.571l0,-7.035l-27.905,0l0,7.029c2.635,0.466 4.597,1.007 5.885,1.625c1.288,0.617 2.146,1.537 2.573,2.761c0.427,1.223 0.661,2.96 0.702,5.211l0.414,34.933c0.077,5.338 -0.621,9.75 -2.094,13.238c-1.473,3.488 -3.567,6.078 -6.281,7.77c-2.714,1.692 -5.896,2.539 -9.546,2.539c-3.684,-0 -6.916,-0.844 -9.697,-2.532c-2.782,-1.688 -4.959,-4.189 -6.531,-7.502c-1.572,-3.314 -2.359,-7.445 -2.359,-12.395l0,-37.495c0,-1.795 0.224,-3.207 0.672,-4.236c0.447,-1.028 1.315,-1.822 2.603,-2.381c1.288,-0.558 3.214,-1.07 5.777,-1.536l-0,-7.029l-46.871,0l-0,7.029c2.323,0.429 4.06,0.913 5.213,1.452c1.152,0.538 1.925,1.302 2.319,2.292c0.393,0.99 0.59,2.342 0.59,4.056Z" style="fill:#fff;fill-rule:nonzero;"/><path d="M501.863,642.891c0,-9.278 -2.202,-17.093 -6.605,-23.445c-4.404,-6.352 -10.623,-11.163 -18.658,-14.431c-8.035,-3.269 -17.501,-4.903 -28.4,-4.903l-45.122,0l-0,7.029c2.562,0.466 4.488,0.978 5.779,1.536c1.291,0.559 2.15,1.353 2.577,2.381c0.427,1.029 0.641,2.441 0.641,4.236l-0,57.771c-0,1.795 -0.214,3.207 -0.641,4.236c-0.427,1.028 -1.286,1.822 -2.577,2.38c-1.291,0.559 -3.217,1.071 -5.779,1.537l-0,7.029l46.874,-0c7.298,-0 14.093,-1.075 20.385,-3.225c6.291,-2.15 11.797,-5.226 16.518,-9.227c4.72,-4.001 8.402,-8.781 11.044,-14.34c2.643,-5.558 3.964,-11.747 3.964,-18.564Zm-32.67,1.466c0,7.237 -0.983,13.496 -2.951,18.776c-1.967,5.28 -4.744,9.38 -8.329,12.301c-3.585,2.92 -7.786,4.466 -12.602,4.638l-3.539,0.088l0,-71.961l3.539,0.088c4.957,0.172 9.219,1.798 12.785,4.879c3.567,3.081 6.299,7.293 8.197,12.637c1.897,5.344 2.864,11.528 2.9,18.554Z" style="fill:#fff;fill-rule:nonzero;"/><path d="M553.741,673.065l-0,-57.771c-0,-1.795 0.213,-3.207 0.641,-4.236c0.427,-1.028 1.286,-1.831 2.576,-2.408c1.291,-0.576 3.217,-1.08 5.78,-1.509l-0,-7.029l-47.692,0l0,7.029c2.562,0.429 4.489,0.933 5.78,1.509c1.29,0.577 2.149,1.38 2.576,2.408c0.428,1.029 0.641,2.441 0.641,4.236l0,57.771c0,1.795 -0.213,3.207 -0.641,4.236c-0.427,1.028 -1.286,1.822 -2.576,2.38c-1.291,0.559 -3.218,1.071 -5.78,1.537l0,7.029l47.692,-0l-0,-7.029c-2.563,-0.466 -4.489,-0.978 -5.78,-1.537c-1.29,-0.558 -2.149,-1.352 -2.576,-2.38c-0.428,-1.029 -0.641,-2.441 -0.641,-4.236Z" style="fill:#fff;fill-rule:nonzero;"/><path d="M572.983,644.451c0,6.799 1.196,12.991 3.588,18.574c2.391,5.583 5.783,10.396 10.176,14.438c4.392,4.042 9.622,7.164 15.688,9.366c6.066,2.202 12.812,3.303 20.238,3.303c7.447,0 14.207,-1.162 20.28,-3.485c6.072,-2.324 11.289,-5.574 15.65,-9.749c4.361,-4.175 7.716,-9.076 10.065,-14.703c2.35,-5.626 3.524,-11.722 3.524,-18.287c0,-6.799 -1.196,-12.991 -3.587,-18.574c-2.392,-5.584 -5.784,-10.396 -10.176,-14.438c-4.393,-4.042 -9.622,-7.164 -15.688,-9.366c-6.066,-2.202 -12.812,-3.303 -20.238,-3.303c-7.447,-0 -14.207,1.161 -20.28,3.485c-6.072,2.324 -11.289,5.574 -15.65,9.749c-4.361,4.175 -7.717,9.067 -10.066,14.675c-2.349,5.609 -3.524,11.714 -3.524,18.315Zm32.697,-1.003c0,-7.23 0.579,-13.526 1.738,-18.888c1.159,-5.361 2.976,-9.511 5.451,-12.449c2.476,-2.938 5.644,-4.407 9.506,-4.407c2.696,0 5.104,0.897 7.222,2.692c2.119,1.794 3.913,4.339 5.383,7.635c1.47,3.295 2.59,7.22 3.36,11.775c0.77,4.554 1.155,9.589 1.155,15.105c0,7.23 -0.588,13.517 -1.765,18.86c-1.177,5.344 -2.994,9.493 -5.451,12.449c-2.457,2.957 -5.617,4.435 -9.479,4.435c-2.696,-0 -5.103,-0.898 -7.222,-2.692c-2.118,-1.795 -3.912,-4.34 -5.382,-7.635c-1.47,-3.295 -2.59,-7.22 -3.361,-11.775c-0.77,-4.555 -1.155,-9.59 -1.155,-15.105Z" style="fill:#fff;fill-rule:nonzero;"/></g><g><path d="M347.693,411.583l152.754,-264.575l2.922,-5.451l2.578,-5.639l2.214,-5.776l1.841,-5.913l1.466,-6.013l1.092,-6.1l0.689,-6.15l0.315,-6.18l-0.089,-6.189l-0.472,-6.179l-0.866,-6.131l-1.24,-6.061l-1.633,-5.973l-1.998,-5.864l-2.371,-5.717l-2.726,-5.56l-3.07,-5.373l-3.405,-5.175l-3.719,-4.95l-4.035,-4.703l-4.309,-4.438l-4.596,-4.152l-4.841,-3.858l-5.077,-3.542l-5.284,-3.218l-5.481,-2.883l-5.658,-2.519l-5.806,-2.165l-5.923,-1.79l-6.022,-1.417l-6.111,-1.034l-6.16,-0.649l-6.179,-0.246l-6.189,0.138l-6.17,0.521l-6.13,0.915l-6.052,1.309l-5.953,1.673l-5.845,2.056l-5.697,2.421l-5.54,2.775l-5.343,3.109l-5.146,3.454l-4.91,3.769l-4.674,4.064l-4.399,4.359l-4.113,4.624l-3.818,4.871l-3.503,5.107l-3.168,5.323l-2.824,5.501l-2.48,5.678l-2.115,5.825l-1.742,5.933l-1.358,6.042l-0.984,6.111l-0.59,6.169l-0.197,6.189l0.197,6.19l0.58,6.159l0.965,6.111l1.358,6.042l1.731,5.953l2.106,5.815l2.46,5.678l2.824,5.51l3.169,5.324l3.493,5.116l3.808,4.881l4.103,4.625l2.519,2.942l2.204,3.158l1.889,3.375l1.555,3.533l1.191,3.67l0.826,3.779l0.453,3.837l0.069,3.858l-0.315,3.847l-0.679,3.798l-1.063,3.72l-1.417,3.591l-1.761,3.434l-100.741,174.491l-2.096,3.247l-2.401,3.021l-2.686,2.775l-2.952,2.499l-3.178,2.185l-3.385,1.869l-3.543,1.535l-3.68,1.171l-3.778,0.797l-3.838,0.433l-3.867,0.05l-3.847,-0.335l-3.798,-0.709l-3.71,-1.082l-3.582,-1.446l-3.424,-1.781l-3.237,-2.116l-3.002,-2.421l-2.765,-2.706l-2.469,-2.961l-2.175,-3.198l-3.395,-5.176l-3.709,-4.95l-4.015,-4.713l-4.3,-4.438l-4.576,-4.172l-4.831,-3.867l-5.068,-3.552l-5.274,-3.228l-5.471,-2.892l-5.648,-2.539l-5.786,-2.175l-5.923,-1.81l-6.022,-1.427l-6.101,-1.053l-6.15,-0.659l-6.179,-0.266l-6.19,0.118l-6.169,0.512l-6.121,0.895l-6.051,1.279l-5.963,1.663l-5.845,2.037l-5.697,2.401l-5.54,2.755l-5.363,3.1l-5.146,3.424l-4.93,3.749l-4.674,4.054l-4.408,4.34l-4.133,4.605l-3.828,4.861l-3.513,5.097l-3.188,5.303l-2.853,5.491l-2.49,5.668l-2.135,5.805l-1.761,5.934l-1.378,6.032l-1.004,6.11l-0.61,6.15l-0.226,6.189l0.177,6.19l0.551,6.16l0.945,6.11l1.338,6.052l1.702,5.943l2.086,5.825l2.441,5.688l2.804,5.52l3.139,5.333l3.473,5.117l3.779,4.9l4.093,4.644l4.369,4.379l4.645,4.084l4.89,3.798l5.117,3.473l5.333,3.149l5.52,2.805l5.678,2.44l5.825,2.086l5.943,1.722l6.052,1.328l9.682,1.634l9.732,1.249l9.781,0.886l9.81,0.502l9.82,0.118l9.811,-0.256l9.8,-0.63l9.771,-1.013l9.722,-1.388l9.653,-1.751l9.594,-2.135l9.495,-2.5l9.388,-2.863l9.279,-3.218l9.141,-3.582l9.004,-3.926l8.846,-4.27l8.669,-4.605l8.482,-4.94l8.295,-5.254l8.078,-5.58l7.862,-5.884l7.626,-6.189l7.39,-6.465l7.124,-6.75l6.868,-7.026l6.593,-7.281l6.297,-7.528l6.013,-7.763l5.707,-8l5.392,-8.207l5.068,-8.403" style="fill:#fff;fill-rule:nonzero;"/><path d="M613.37,245.643l-56.58,-98.005l-225.609,390.752l451.563,0.61l-55.901,-96.815l-226.544,-0.689l113.071,-195.853" style="fill:#fff;fill-rule:nonzero;"/></g></g></svg>