<?xml version="1.0" encoding="UTF-8" standalone="no"?><!DOCTYPE svg PUBLIC "-//W3C//DTD SVG 1.1//EN" "http://www.w3.org/Graphics/SVG/1.1/DTD/svg11.dtd"><svg width="100%" height="100%" viewBox="0 0 783 693" version="1.1" xmlns="http://www.w3.org/2000/svg" xmlns:xlink="http://www.w3.org/1999/xlink" xml:space="preserve" xmlns:serif="http://www.serif.com/" style="fill-rule:evenodd;clip-rule:evenodd;stroke-linejoin:round;stroke-miterlimit:2;"><g><path d="M242.148,664.907c-1.444,3.222 -3.305,5.833 -5.583,7.833c-2.278,2 -5.083,4.112 -8.417,6.334c-2.555,1.666 -6.305,2.278 -11.25,1.833c-4.944,-0.444 -10.583,-1.944 -16.916,-4.5c-6.112,-2.555 -15.778,-4.5 -29,-5.833c-3,-0.334 -5.5,-0.556 -7.5,-0.667c-2,-0.111 -3.917,-0.222 -5.75,-0.333c-1.834,-0.111 -3.723,-0.195 -5.667,-0.25c-1.945,-0.056 -4.361,-0.084 -7.25,-0.084c-5.556,-0.111 -10.945,0 -16.167,0.334c-5.222,0.333 -10.055,0.833 -14.5,1.5c-4.444,0.666 -8.389,1.5 -11.833,2.5c-3.445,1 -6.056,2.111 -7.833,3.333c-1.667,1.111 -3.167,1.722 -4.5,1.833c-1.334,0.112 -2.445,-0.166 -3.334,-0.833c-0.889,-0.667 -1.5,-1.639 -1.833,-2.917c-0.333,-1.277 -0.333,-2.75 -0,-4.416c0.444,-2.111 1.389,-4 2.833,-5.667c1.445,-1.667 3.056,-3.083 4.834,-4.25c1.777,-1.167 3.583,-1.972 5.416,-2.417c1.834,-0.444 3.361,-0.444 4.584,0c0.777,0.334 1.861,0.612 3.25,0.834c1.388,0.222 2.861,0.389 4.416,0.5c1.556,0.111 3.056,0.166 4.5,0.166c1.445,0 2.667,-0.111 3.667,-0.333c1.555,-0.333 3.194,-0.611 4.917,-0.833c1.722,-0.222 3.75,-0.417 6.083,-0.584c2.333,-0.166 5.167,-0.25 8.5,-0.25l12.333,0c1.556,0 2.556,-0.194 3,-0.583c0.445,-0.389 0.667,-1.305 0.667,-2.75l-0,-20.417c-0,-3.5 0.028,-6.888 0.083,-10.166c0.056,-3.278 0.139,-6.25 0.25,-8.917c0,-1.333 -0.222,-2.167 -0.666,-2.5c-0.445,-0.333 -1.389,-0.5 -2.834,-0.5c-1.555,0 -3,-0.028 -4.333,-0.083c-1.333,-0.056 -2.222,-0.084 -2.667,-0.084c-3.555,-0.222 -7.555,0.028 -12,0.75c-4.444,0.723 -8.611,1.862 -12.5,3.417c-6,2.445 -9.778,1.333 -11.333,-3.333c-0.556,-1.889 -0.5,-3.611 0.167,-5.167c0.666,-1.555 2.444,-3.278 5.333,-5.167c2.555,-1.666 5.139,-2.555 7.75,-2.666c2.611,-0.111 4.917,0.166 6.917,0.833c0.777,0.222 2.444,0.445 5,0.667c2.555,0.222 5.222,0.222 8,-0c4.666,-0.222 8.638,-0.389 11.916,-0.5c3.278,-0.111 6.445,-0.167 9.5,-0.167c3.056,0 6.389,0.056 10,0.167c3.611,0.111 8.084,0.278 13.417,0.5c6.111,0.222 11.667,0.389 16.667,0.5c5,0.111 8.722,0.278 11.166,0.5c3.334,0.333 4.834,2 4.5,5c-0.222,1.555 -0.694,2.722 -1.416,3.5c-0.723,0.778 -2.084,1.278 -4.084,1.5c-2,0.222 -5.75,0.389 -11.25,0.5c-5.5,0.111 -12.028,0.055 -19.583,-0.167c-2,0 -3.583,0.028 -4.75,0.083c-1.167,0.056 -2.028,0.223 -2.583,0.5c-0.556,0.278 -0.945,0.695 -1.167,1.25c-0.222,0.556 -0.333,1.223 -0.333,2c-0.112,2.556 -0.223,5.528 -0.334,8.917c-0.111,3.389 -0.194,6.861 -0.25,10.417c-0.055,3.555 -0.111,7.055 -0.166,10.5c-0.056,3.444 -0.084,6.5 -0.084,9.166c0,1.334 0.306,2.223 0.917,2.667c0.611,0.445 1.694,0.667 3.25,0.667c1.889,0.111 4,0.194 6.333,0.25c2.334,0.055 4.611,0.139 6.834,0.25c14.444,0.555 26.027,0.75 34.75,0.583c8.722,-0.167 13.861,-0.361 15.416,-0.583c1.778,-0.222 2.945,-0 3.5,0.666c0.556,0.667 0.222,2.389 -1,5.167Z" style="fill:#fff;fill-rule:nonzero;stroke:#fff;stroke-width:2.08px;"/><path d="M468.648,608.24c-1.444,2.889 -2.861,5.167 -4.25,6.834c-1.389,1.666 -3.028,2.833 -4.916,3.5c-1.889,0.666 -4.223,0.916 -7,0.75c-2.778,-0.167 -6.278,-0.695 -10.5,-1.584c-3,-0.555 -6.445,-1.027 -10.334,-1.416c-3.889,-0.389 -9.333,-0.75 -16.333,-1.084c-1.556,-0.111 -2.611,0.334 -3.167,1.334c-0.555,1 -0.778,3.055 -0.666,6.166c0.111,2.889 0.472,4.723 1.083,5.5c0.611,0.778 1.805,1.167 3.583,1.167l7.75,0c2.722,0 5.417,0.056 8.084,0.167c2.666,0.111 5.194,0.222 7.583,0.333c2.389,0.111 4.472,0.222 6.25,0.333c2.222,0.223 3.639,0.556 4.25,1c0.611,0.445 0.75,1.223 0.417,2.334c-0.667,2.222 -1.417,3.694 -2.25,4.416c-0.834,0.723 -2.195,1.195 -4.084,1.417c-1.666,0.222 -3.389,0.361 -5.166,0.417c-1.778,0.055 -3.778,0.083 -6,0.083c-2.223,0 -4.75,-0.055 -7.584,-0.167c-2.833,-0.111 -6.083,-0.222 -9.75,-0.333c-1.555,-0.111 -2.555,0.083 -3,0.583c-0.444,0.5 -0.666,1.806 -0.666,3.917c-0,3.222 0.277,5.25 0.833,6.083c0.555,0.834 1.778,1.25 3.667,1.25c5.111,-0.111 11.055,-0.083 17.833,0.084c6.778,0.166 13.667,0.361 20.667,0.583c2.111,0.111 3.444,0.389 4,0.833c0.555,0.445 0.777,1.5 0.666,3.167c-0.111,2 -0.75,3.333 -1.916,4c-1.167,0.667 -3.362,1.167 -6.584,1.5c-1.778,0.222 -3.722,0.361 -5.833,0.417c-2.111,0.055 -4.528,0.083 -7.25,0.083c-2.722,0 -5.861,-0.028 -9.417,-0.083c-3.555,-0.056 -7.611,-0.195 -12.166,-0.417c-1.556,-0.111 -2.667,0.028 -3.334,0.417c-0.666,0.389 -0.944,1.194 -0.833,2.416c0.222,2.778 0.333,5.334 0.333,7.667l0,6c0,2 -0.083,3.639 -0.25,4.917c-0.166,1.278 -0.611,2.361 -1.333,3.25c-0.722,0.889 -1.889,1.666 -3.5,2.333c-1.611,0.667 -3.806,1.389 -6.583,2.167c-0.889,0.222 -1.639,0.25 -2.25,0.083c-0.612,-0.167 -1.139,-0.75 -1.584,-1.75c-0.444,-1 -0.75,-2.5 -0.916,-4.5c-0.167,-2 -0.25,-4.778 -0.25,-8.333c0.222,-10.222 0.444,-20.084 0.666,-29.584c0.222,-9.5 0.556,-18.861 1,-28.083c0.111,-1.333 -0.222,-2.222 -1,-2.667c-0.778,-0.444 -2.111,-0.666 -4,-0.666c-1.222,-0 -2.389,0.278 -3.5,0.833c-1.111,0.556 -2.444,1.389 -4,2.5c-3.333,2.222 -6.333,4.028 -9,5.417c-2.666,1.389 -5.722,2.639 -9.166,3.75c-2.112,0.666 -3.75,0.805 -4.917,0.416c-1.167,-0.388 -2.139,-1.527 -2.917,-3.416c-0.555,-1.445 -0.222,-2.5 1,-3.167c6.667,-3.111 12.111,-6.917 16.334,-11.417c4.222,-4.5 7.833,-10.083 10.833,-16.75c1.111,-2.333 2.861,-3.694 5.25,-4.083c2.389,-0.389 5.417,0.528 9.083,2.75c1.889,1.222 3.056,2.695 3.5,4.417c0.445,1.722 0.056,3.639 -1.166,5.75c-1.223,2 -0.778,3 1.333,3c5.222,0.111 11.167,0.166 17.833,0.166l22.334,0c5,0 9.138,0.028 12.416,0.084c3.278,0.055 6.25,0.194 8.917,0.416c2,0.112 2.611,0.945 1.833,2.5Zm-97.666,-9.333c-0.556,1.778 -1.612,3.5 -3.167,5.167c-1.556,1.666 -3.889,3.611 -7,5.833c-1.778,1.333 -2.667,3.167 -2.667,5.5c-0.111,3.778 -0.222,7.472 -0.333,11.083c-0.111,3.612 -0.222,7.334 -0.333,11.167c-0.112,3.833 -0.167,7.889 -0.167,12.167l-0,14.416c-0,5.112 -0.056,9.223 -0.167,12.334c-0.111,3.111 -0.416,5.583 -0.916,7.416c-0.5,1.834 -1.195,3.167 -2.084,4c-0.889,0.834 -2.111,1.528 -3.666,2.084c-2.223,0.778 -4.056,1.166 -5.5,1.166c-1.445,0 -2.556,-0.666 -3.334,-2c-0.778,-1.333 -1.278,-3.416 -1.5,-6.25c-0.222,-2.833 -0.166,-6.694 0.167,-11.583c0.333,-5 0.611,-9.5 0.833,-13.5c0.222,-4 0.417,-7.861 0.584,-11.583c0.166,-3.722 0.305,-7.5 0.416,-11.334c0.111,-3.833 0.222,-8.083 0.334,-12.75c-0,-1.222 -0.167,-1.972 -0.5,-2.25c-0.334,-0.277 -0.945,-0.305 -1.834,-0.083c-3.222,1 -6.472,1.75 -9.75,2.25c-3.278,0.5 -5.694,0.639 -7.25,0.417c-3.555,-0.445 -6.361,-1.528 -8.416,-3.25c-2.056,-1.722 -3.584,-4.584 -4.584,-8.584c-0.222,-1.222 -0.111,-2.055 0.334,-2.5c0.444,-0.444 1.611,-0.777 3.5,-1c4,-0.333 8.472,-0.888 13.416,-1.666c4.945,-0.778 9.889,-1.75 14.834,-2.917c4.944,-1.167 9.555,-2.444 13.833,-3.833c4.278,-1.389 7.694,-2.806 10.25,-4.25c2.111,-1.222 3.583,-1.361 4.417,-0.417c0.833,0.945 0.916,2.528 0.25,4.75Z" style="fill:#fff;fill-rule:nonzero;stroke:#fff;stroke-width:2.08px;"/><path d="M672.315,629.407c-0.556,1.778 -1.222,3.028 -2,3.75c-0.778,0.722 -2.111,1.083 -4,1.083c-1.889,0 -3,-0.388 -3.333,-1.166c-0.334,-0.778 -0.5,-2.111 -0.5,-4c-0,-2.445 -0.056,-4.472 -0.167,-6.084c-0.111,-1.611 -0.445,-3.583 -1,-5.916c-0.222,-1.222 -0.889,-2.334 -2,-3.334c-1.111,-1 -2.722,-1.611 -4.833,-1.833c-2,-0.222 -4.973,-0.444 -8.917,-0.667c-3.945,-0.222 -8.472,-0.388 -13.583,-0.5c-5.112,-0.111 -10.556,-0.166 -16.334,-0.166c-5.778,-0 -11.444,0.055 -17,0.166c-5.555,0.112 -10.805,0.306 -15.75,0.584c-4.944,0.278 -9.083,0.639 -12.416,1.083c-1.556,0.333 -3.139,0.972 -4.75,1.917c-1.612,0.944 -2.973,2.305 -4.084,4.083c-0.666,1.222 -1.194,3 -1.583,5.333c-0.389,2.334 -0.695,4.445 -0.917,6.334c-0.222,2.666 -0.639,4.472 -1.25,5.416c-0.611,0.945 -1.583,1.584 -2.916,1.917c-1.889,0.556 -3.25,0.056 -4.084,-1.5c-0.833,-1.555 -1.472,-3.778 -1.916,-6.667c-0.112,-1 -0.223,-2.333 -0.334,-4c-0.111,-1.666 -0.222,-3.361 -0.333,-5.083c-0.111,-1.722 -0.167,-3.361 -0.167,-4.917c0,-1.555 0.056,-2.722 0.167,-3.5c0.333,-3.888 1.833,-7.166 4.5,-9.833c1.889,-1.667 3.444,-2.555 4.667,-2.667c1.222,-0.111 2.944,0.334 5.166,1.334c2.111,0.889 4.139,1.389 6.084,1.5c1.944,0.111 4.75,-0.056 8.416,-0.5c3.222,-0.334 6.639,-0.639 10.25,-0.917c3.611,-0.278 7.972,-0.472 13.084,-0.583c1,-0 1.5,-0.556 1.5,-1.667c-0.223,-3.778 -0.139,-6.278 0.25,-7.5c0.388,-1.222 1.361,-2.111 2.916,-2.667c0.445,-0.222 1.167,-0.361 2.167,-0.416c1,-0.056 2.028,-0.084 3.083,-0.084c1.056,0 2.111,0.056 3.167,0.167c1.055,0.111 1.861,0.222 2.417,0.333c2.111,0.778 3.805,1.806 5.083,3.084c1.278,1.278 1.917,3.75 1.917,7.416c-0,1.112 0.555,1.667 1.666,1.667c3.889,0.222 7.667,0.445 11.334,0.667c3.666,0.222 7.666,0.555 12,1c2.666,0.222 5.166,0.194 7.5,-0.084c2.333,-0.277 4.166,-0.916 5.5,-1.916c1.666,-1 3.611,-1.084 5.833,-0.25c2.222,0.833 4.055,2.361 5.5,4.583c0.667,1.111 1.139,2.639 1.417,4.583c0.277,1.945 0.416,4.084 0.416,6.417c0,2.333 -0.166,4.722 -0.5,7.167c-0.333,2.444 -0.778,4.722 -1.333,6.833Zm18,42.833c-1.333,3.556 -3.306,6.667 -5.917,9.334c-2.611,2.666 -5.305,4.555 -8.083,5.666c-1.556,0.667 -2.945,1.139 -4.167,1.417c-1.222,0.278 -2.583,0.361 -4.083,0.25c-1.5,-0.111 -3.361,-0.444 -5.583,-1c-2.223,-0.555 -5.056,-1.389 -8.5,-2.5c-1.556,-0.444 -3.389,-0.861 -5.5,-1.25c-2.112,-0.389 -4.417,-0.75 -6.917,-1.083c-2.5,-0.334 -5.111,-0.611 -7.833,-0.834c-2.723,-0.222 -5.417,-0.444 -8.084,-0.666c-2.444,-0.222 -5.361,-0.389 -8.75,-0.5c-3.389,-0.111 -6.944,-0.222 -10.666,-0.334c-3.723,-0.111 -7.5,-0.166 -11.334,-0.166l-10.583,-0c-5.889,0.222 -10.889,0.472 -15,0.75c-4.111,0.278 -7.556,0.583 -10.333,0.916c-2.778,0.334 -4.973,0.723 -6.584,1.167c-1.611,0.445 -2.916,0.889 -3.916,1.333c-3.223,1.445 -5.806,2.028 -7.75,1.75c-1.945,-0.277 -3.473,-1.527 -4.584,-3.75c-0.444,-0.888 -0.5,-1.888 -0.166,-3c0.333,-1.111 0.916,-2.222 1.75,-3.333c0.833,-1.111 1.916,-2.167 3.25,-3.167c1.333,-1 2.833,-1.777 4.5,-2.333c2.777,-1 4.833,-1.528 6.166,-1.583c1.334,-0.056 2.834,0.139 4.5,0.583c0.778,0.222 1.584,0.417 2.417,0.583c0.833,0.167 1.889,0.278 3.167,0.334c1.277,0.055 2.805,0.055 4.583,-0c1.778,-0.056 4.111,-0.139 7,-0.25c1.889,-0.111 5.361,-0.222 10.417,-0.334c5.055,-0.111 10.694,-0.277 16.916,-0.5c0.778,0 1.278,-0.5 1.5,-1.5c0.111,-0.555 0.167,-1.25 0.167,-2.083c-0,-0.833 0.055,-1.528 0.167,-2.083c0.222,-1.111 -0.278,-1.667 -1.5,-1.667c-1.223,0 -2.278,0.028 -3.167,0.083c-0.889,0.056 -1.722,0.084 -2.5,0.084c-0.556,-0 -1.528,0.028 -2.917,0.083c-1.389,0.056 -2.805,0.139 -4.25,0.25c-1.444,0.111 -2.805,0.222 -4.083,0.333c-1.278,0.112 -2.083,0.223 -2.417,0.334c-3.222,0.889 -5.389,1.25 -6.5,1.083c-1.111,-0.167 -1.944,-0.694 -2.5,-1.583c-1,-1.889 -1.139,-3.472 -0.416,-4.75c0.722,-1.278 2.583,-2.695 5.583,-4.25c1.889,-1 3.417,-1.5 4.583,-1.5c1.167,-0 2.084,0.111 2.75,0.333c0.556,0.222 1.445,0.389 2.667,0.5c1.222,0.111 2.528,0.222 3.917,0.333c1.388,0.112 2.777,0.167 4.166,0.167l3.584,0c1.222,0 2.055,-0.111 2.5,-0.333c0.444,-0.222 0.666,-0.778 0.666,-1.667c0,-1.222 -0.083,-2 -0.25,-2.333c-0.166,-0.334 -0.361,-0.556 -0.583,-0.667c-1.222,-0.555 -2.333,-0.972 -3.333,-1.25c-1,-0.278 -1.778,-0.694 -2.334,-1.25c-1.666,-1.222 -3.889,-1.805 -6.666,-1.75c-2.778,0.056 -5.278,0.472 -7.5,1.25c-4.556,1.667 -7.389,0.945 -8.5,-2.167c-0.778,-1.888 -0.778,-3.722 -0,-5.5c0.777,-1.777 3,-3.277 6.666,-4.5c5,-1.666 8.75,-3.055 11.25,-4.166c2.5,-1.111 4.528,-2.167 6.084,-3.167c0.666,-0.555 0.861,-1.139 0.583,-1.75c-0.278,-0.611 -0.861,-0.917 -1.75,-0.917c-3.889,0.223 -7.306,0.473 -10.25,0.75c-2.945,0.278 -5.195,0.639 -6.75,1.084c-2.889,0.889 -4.833,1.222 -5.833,1c-1,-0.222 -1.5,-1 -1.5,-2.334c-0,-1 0.166,-1.972 0.5,-2.916c0.333,-0.945 1.222,-2.195 2.666,-3.75c1,-0.889 2.25,-1.528 3.75,-1.917c1.5,-0.389 2.972,-0.305 4.417,0.25c1,0.445 1.889,0.695 2.667,0.75c0.777,0.056 2.388,-0.083 4.833,-0.417c1,-0.111 2.805,-0.222 5.417,-0.333c2.611,-0.111 5.666,-0.194 9.166,-0.25c3.5,-0.055 7.222,-0.111 11.167,-0.167c3.944,-0.055 7.694,-0.055 11.25,0c3.555,0.056 6.75,0.112 9.583,0.167c2.834,0.056 4.861,0.139 6.084,0.25c3.111,0.222 5.083,0.778 5.916,1.667c0.834,0.889 0.695,2.166 -0.416,3.833c-0.334,0.556 -0.695,0.972 -1.084,1.25c-0.389,0.278 -0.916,0.5 -1.583,0.667c-0.667,0.166 -1.556,0.278 -2.667,0.333c-1.111,0.056 -2.611,0.083 -4.5,0.083c-2.222,0.112 -4.5,0.139 -6.833,0.084c-2.333,-0.056 -5.111,-0.028 -8.333,0.083c-1.889,0 -3.112,0.222 -3.667,0.667c-1.333,1.222 -2.861,2.278 -4.583,3.166c-1.723,0.889 -3.639,1.778 -5.75,2.667c-2.667,0.889 -4.362,1.556 -5.084,2c-0.722,0.445 -1.472,0.945 -2.25,1.5c-0.889,0.667 -1.166,1.445 -0.833,2.333c0.333,0.889 1.111,1.612 2.333,2.167c1.111,0.667 2.584,1.111 4.417,1.333c1.833,0.223 3.778,0.278 5.833,0.167c2.056,-0.111 4.111,-0.361 6.167,-0.75c2.055,-0.389 3.861,-0.917 5.417,-1.583c1.666,-0.778 1.777,-1.722 0.333,-2.834c-2.222,-1.666 -3.528,-3.027 -3.917,-4.083c-0.389,-1.055 -0.139,-2.194 0.75,-3.417c1.222,-1.444 2.972,-1.972 5.25,-1.583c2.278,0.389 5.361,1.639 9.25,3.75c0.556,0.333 1.5,0.917 2.834,1.75c1.333,0.833 2.75,1.778 4.25,2.833c1.5,1.056 2.944,2.139 4.333,3.25c1.389,1.112 2.472,2.056 3.25,2.834c2,2 2.361,3.639 1.083,4.916c-1.278,1.278 -3.194,1.639 -5.75,1.084c-0.889,-0.222 -2.111,-0.639 -3.666,-1.25c-1.556,-0.611 -3.612,-1.639 -6.167,-3.084c-0.778,-0.444 -1.445,-0.388 -2,0.167c-1.667,1.556 -3.639,2.917 -5.917,4.083c-2.278,1.167 -4.805,2.028 -7.583,2.584c-0.333,0.111 -0.611,0.333 -0.833,0.666c-0.223,0.334 -0.334,0.945 -0.334,1.834c0,1.222 0.084,1.972 0.25,2.25c0.167,0.278 0.528,0.416 1.084,0.416c5,0.112 9.666,0.306 14,0.584c4.333,0.278 7.777,0.583 10.333,0.916c2.333,0.334 3.694,0.806 4.083,1.417c0.389,0.611 0.139,1.639 -0.75,3.083c-0.555,1 -1.194,1.639 -1.916,1.917c-0.723,0.278 -2.195,0.472 -4.417,0.583c-5,0.223 -9.139,0.334 -12.417,0.334c-3.278,-0 -6.25,-0.056 -8.916,-0.167c-1.112,0 -1.612,0.556 -1.5,1.667c0.111,0.555 0.166,1.166 0.166,1.833l0,1.833c0,1.112 0.5,1.667 1.5,1.667c3.556,-0.111 6.584,-0.194 9.084,-0.25c2.5,-0.055 4.194,-0.028 5.083,0.083c3.778,0.112 8.083,0.195 12.917,0.25c4.833,0.056 9.666,0.084 14.5,0.084c4.833,-0 9.361,-0.028 13.583,-0.084c4.222,-0.055 7.611,-0.138 10.167,-0.25c2.333,0 3.111,1 2.333,3Z" style="fill:#fff;fill-rule:nonzero;stroke:#fff;stroke-width:2.08px;"/></g><g><path d="M347.693,411.583l152.754,-264.575l2.922,-5.451l2.578,-5.639l2.214,-5.776l1.841,-5.913l1.466,-6.013l1.092,-6.1l0.689,-6.15l0.315,-6.18l-0.089,-6.189l-0.472,-6.179l-0.866,-6.131l-1.24,-6.061l-1.633,-5.973l-1.998,-5.864l-2.371,-5.717l-2.726,-5.56l-3.07,-5.373l-3.405,-5.175l-3.719,-4.95l-4.035,-4.703l-4.309,-4.438l-4.596,-4.152l-4.841,-3.858l-5.077,-3.542l-5.284,-3.218l-5.481,-2.883l-5.658,-2.519l-5.806,-2.165l-5.923,-1.79l-6.022,-1.417l-6.111,-1.034l-6.16,-0.649l-6.179,-0.246l-6.189,0.138l-6.17,0.521l-6.13,0.915l-6.052,1.309l-5.953,1.673l-5.845,2.056l-5.697,2.421l-5.54,2.775l-5.343,3.109l-5.146,3.454l-4.91,3.769l-4.674,4.064l-4.399,4.359l-4.113,4.624l-3.818,4.871l-3.503,5.107l-3.168,5.323l-2.824,5.501l-2.48,5.678l-2.115,5.825l-1.742,5.933l-1.358,6.042l-0.984,6.111l-0.59,6.169l-0.197,6.189l0.197,6.19l0.58,6.159l0.965,6.111l1.358,6.042l1.731,5.953l2.106,5.815l2.46,5.678l2.824,5.51l3.169,5.324l3.493,5.116l3.808,4.881l4.103,4.625l2.519,2.942l2.204,3.158l1.889,3.375l1.555,3.533l1.191,3.67l0.826,3.779l0.453,3.837l0.069,3.858l-0.315,3.847l-0.679,3.798l-1.063,3.72l-1.417,3.591l-1.761,3.434l-100.741,174.491l-2.096,3.247l-2.401,3.021l-2.686,2.775l-2.952,2.499l-3.178,2.185l-3.385,1.869l-3.543,1.535l-3.68,1.171l-3.778,0.797l-3.838,0.433l-3.867,0.05l-3.847,-0.335l-3.798,-0.709l-3.71,-1.082l-3.582,-1.446l-3.424,-1.781l-3.237,-2.116l-3.002,-2.421l-2.765,-2.706l-2.469,-2.961l-2.175,-3.198l-3.395,-5.176l-3.709,-4.95l-4.015,-4.713l-4.3,-4.438l-4.576,-4.172l-4.831,-3.867l-5.068,-3.552l-5.274,-3.228l-5.471,-2.892l-5.648,-2.539l-5.786,-2.175l-5.923,-1.81l-6.022,-1.427l-6.101,-1.053l-6.15,-0.659l-6.179,-0.266l-6.19,0.118l-6.169,0.512l-6.121,0.895l-6.051,1.279l-5.963,1.663l-5.845,2.037l-5.697,2.401l-5.54,2.755l-5.363,3.1l-5.146,3.424l-4.93,3.749l-4.674,4.054l-4.408,4.34l-4.133,4.605l-3.828,4.861l-3.513,5.097l-3.188,5.303l-2.853,5.491l-2.49,5.668l-2.135,5.805l-1.761,5.934l-1.378,6.032l-1.004,6.11l-0.61,6.15l-0.226,6.189l0.177,6.19l0.551,6.16l0.945,6.11l1.338,6.052l1.702,5.943l2.086,5.825l2.441,5.688l2.804,5.52l3.139,5.333l3.473,5.117l3.779,4.9l4.093,4.644l4.369,4.379l4.645,4.084l4.89,3.798l5.117,3.473l5.333,3.149l5.52,2.805l5.678,2.44l5.825,2.086l5.943,1.722l6.052,1.328l9.682,1.634l9.732,1.249l9.781,0.886l9.81,0.502l9.82,0.118l9.811,-0.256l9.8,-0.63l9.771,-1.013l9.722,-1.388l9.653,-1.751l9.594,-2.135l9.495,-2.5l9.388,-2.863l9.279,-3.218l9.141,-3.582l9.004,-3.926l8.846,-4.27l8.669,-4.605l8.482,-4.94l8.295,-5.254l8.078,-5.58l7.862,-5.884l7.626,-6.189l7.39,-6.465l7.124,-6.75l6.868,-7.026l6.593,-7.281l6.297,-7.528l6.013,-7.763l5.707,-8l5.392,-8.207l5.068,-8.403" style="fill:#fff;fill-rule:nonzero;"/><path d="M613.37,245.643l-56.58,-98.005l-225.609,390.752l451.563,0.61l-55.901,-96.815l-226.544,-0.689l113.071,-195.853" style="fill:#fff;fill-rule:nonzero;"/></g></svg>