<svg width="69" height="69" viewBox="0 0 69 69" fill="none" xmlns="http://www.w3.org/2000/svg">
<path fill-rule="evenodd" clip-rule="evenodd" d="M36.9681 0H32.0382V21.8235L23.8639 1.5905L19.2952 3.43448L27.6849 24.1934L11.8496 8.3644L8.3644 11.8496L23.5407 27.0259L3.87171 18.427L1.901 22.9451L22.7043 32.0382H0V36.9681H22.7043L1.901 46.0549L3.87171 50.573L23.5344 41.9804L8.35807 57.1568L11.8432 60.6419L27.6722 44.8129L19.2825 65.5719L23.8512 67.4158L32.0255 47.1828V69.0063H36.9555V47.1828L45.1298 67.4158L49.6985 65.5719L41.3151 44.8129L57.1441 60.6419L60.6293 57.1568L45.4529 41.9804L65.1156 50.573L67.0863 46.0549L46.283 36.9618H68.9873V32.0319H46.283L67.0863 22.9387L65.1156 18.4207L45.4529 27.0132L60.6293 11.8369L57.1441 8.35173L41.3151 24.1807L49.6985 3.4218L45.1298 1.57783L36.9555 21.8108V0H36.9681Z" fill="#F97315"/>
</svg>
